<svg xmlns="http://www.w3.org/2000/svg" width="24" height="22" viewBox="0 0 24 22"><g><g><g><path fill="" d="M11.995 1.846c3.365 0 6.244.614 8.16 1.183a2.786 2.786 0 0 1 1.989 2.683v2.596h-3.69V4.73l-.462-.26s-.586-.344-1.586-.634c-1-.29-2.466-.549-4.411-.549-1.945 0-3.412.258-4.411.549-1 .29-1.586.634-1.586.634l-.461.26v3.577h-3.69V5.712c0-1.237.797-2.329 1.989-2.683a29.066 29.066 0 0 1 8.159-1.183zM12 0C8.407 0 5.363.661 3.317 1.27A4.647 4.647 0 0 0 0 5.711v2.596a1.86 1.86 0 0 0 1.846 1.846h3.692a1.86 1.86 0 0 0 1.847-1.846V5.885c.173-.081.21-.111.72-.26.841-.244 2.126-.49 3.895-.49 1.77 0 3.054.246 3.894.49.512.149.548.179.721.26v2.423a1.86 1.86 0 0 0 1.847 1.846h3.692A1.86 1.86 0 0 0 24 8.308V5.712c0-2.05-1.36-3.86-3.317-4.443A30.809 30.809 0 0 0 12 0z"/></g><g><g><path fill="" d="M8.32 13.846c0 1.02-.828 1.846-1.85 1.846a1.848 1.848 0 0 1-1.85-1.846c0-1.02.828-1.846 1.85-1.846 1.022 0 1.85.827 1.85 1.846zm5.535 0c0 1.02-.829 1.846-1.85 1.846a1.848 1.848 0 0 1-1.85-1.846c0-1.02.828-1.846 1.85-1.846 1.021 0 1.85.827 1.85 1.846zm5.534 0c0 1.02-.828 1.846-1.85 1.846a1.848 1.848 0 0 1-1.85-1.846c0-1.02.829-1.846 1.85-1.846 1.022 0 1.85.827 1.85 1.846zM8.32 19.385c0 1.02-.827 1.846-1.85 1.846a1.848 1.848 0 0 1-1.849-1.846c0-1.02.828-1.847 1.85-1.847 1.022 0 1.85.827 1.85 1.847zm5.536 0c0 1.02-.829 1.846-1.85 1.846a1.848 1.848 0 0 1-1.85-1.846c0-1.02.828-1.847 1.85-1.847 1.021 0 1.85.827 1.85 1.847zm5.534 0c0 1.02-.828 1.846-1.85 1.846a1.848 1.848 0 0 1-1.85-1.846c0-1.02.829-1.847 1.85-1.847 1.022 0 1.85.827 1.85 1.847z"/></g></g></g></g></svg>