<svg xmlns="http://www.w3.org/2000/svg" width="24" height="23" viewBox="0 0 24 23"><g><g><g><path fill="#fff" d="M19 14c1.116 0 2 .884 2 2s-.884 2-2 2-2-.884-2-2 .884-2 2-2zM5 14c1.116 0 2 .884 2 2s-.884 2-2 2-2-.884-2-2 .884-2 2-2zm0-2c-2.197 0-4 1.803-4 4 0 1.114.475 2.116 1.219 2.844A5.042 5.042 0 0 0 0 23h2c0-1.655 1.345-3 3-3s3 1.345 3 3h2a5.042 5.042 0 0 0-2.219-4.156C8.525 18.116 9 17.114 9 16c0-2.197-1.803-4-4-4zm10-8h7v5h-2v1.563L18.719 9.28 18.406 9H12V8h3zM2 2h11v4H5.687l-.25.156L4 7.125V6H2zM0 0v8h2v2.875l1.563-1.031L6.313 8H10v3h7.563l1.03 1.031C16.585 12.237 15 13.94 15 16c0 1.114.475 2.116 1.219 2.844A5.042 5.042 0 0 0 14 23h2c0-1.655 1.345-3 3-3s3 1.345 3 3h2a5.042 5.042 0 0 0-2.219-4.156C22.525 18.116 23 17.114 23 16c0-.997-.39-1.89-1-2.594V11h2V2h-9V0z"/></g></g></g></svg>