<svg xmlns="http://www.w3.org/2000/svg" width="24" height="15" viewBox="0 0 24 15"><g><g><g><path fill="" d="M17.6 1.6c1.777 0 3.2 1.423 3.2 3.2 0 1.777-1.423 3.2-3.2 3.2a3.188 3.188 0 0 1-3.2-3.2c0-1.777 1.423-3.2 3.2-3.2zm-11.2 0c1.777 0 3.2 1.423 3.2 3.2C9.6 6.577 8.177 8 6.4 8a3.188 3.188 0 0 1-3.2-3.2c0-1.777 1.423-3.2 3.2-3.2zm0-1.6a4.812 4.812 0 0 0-4.8 4.8c0 1.587.78 3 1.975 3.875C1.465 9.723 0 11.891 0 14.4h1.6c0-2.66 2.14-4.8 4.8-4.8 2.66 0 4.8 2.14 4.8 4.8h1.6c0-2.66 2.14-4.8 4.8-4.8 2.66 0 4.8 2.14 4.8 4.8H24c0-2.509-1.465-4.677-3.575-5.725A4.802 4.802 0 0 0 22.4 4.8c0-2.641-2.159-4.8-4.8-4.8a4.812 4.812 0 0 0-4.8 4.8c0 1.587.78 3 1.975 3.875A6.445 6.445 0 0 0 12 11.3a6.445 6.445 0 0 0-2.775-2.625A4.802 4.802 0 0 0 11.2 4.8C11.2 2.159 9.041 0 6.4 0z"/></g></g></g></svg>