<svg xmlns="http://www.w3.org/2000/svg" width="19" height="24" viewBox="0 0 19 24"><g><g><g><path fill="" d="M15.429 17.784v2.108H12v-.784zM12.75 5.459l3.777 10.027L12 17.27v-5.054l-.241-.27-1.473-1.487V6.405zM1.714 1.973L8.58 3.73v7.46l.242.242 1.475 1.487v8.973l-8.582-1.838zm6.027-.243h9.402v6.54l-1.098 1.108-2.01-5.351-.294-.81-.804.297-2.651 1.027V2.378l-.643-.162zM0 0v21.46l.67.135 10.285 2.189L12 24v-2.378h5.143v-4.514l.777-.297.803-.325-.294-.783-1.34-3.595h.054v-1.351l1.473-1.487.241-.27V0z"/></g></g></g></svg>