<svg xmlns="http://www.w3.org/2000/svg" width="26" height="20" viewBox="0 0 26 20"><g><g><g><path fill="" d="M16 11v2h6v-2zm0-4v2h6V7zM9 6c1.116 0 2 .884 2 2s-.884 2-2 2-2-.884-2-2 .884-2 2-2zm0-2C6.803 4 5 5.803 5 8c0 1.114.475 2.116 1.219 2.844A5.042 5.042 0 0 0 4 15h2c0-1.655 1.345-3 3-3s3 1.345 3 3h2a5.042 5.042 0 0 0-2.219-4.156C12.525 10.116 13 9.114 13 8c0-2.197-1.803-4-4-4zM2 2h22v16h-3.406c-.08-.137-.043-.324-.157-.438C20.06 17.186 19.523 17 19 17s-1.06.185-1.438.563c-.113.113-.076.3-.156.437H8.594c-.08-.137-.043-.324-.156-.438C8.06 17.186 7.521 17 7 17c-.522 0-1.06.185-1.438.563-.113.113-.076.3-.156.437H2zM0 0v20h26V0z"/></g></g></g></svg>