<svg xmlns="http://www.w3.org/2000/svg" width="20" height="20" viewBox="0 0 20 20"><g><g><g><path fill="" d="M10 2c4.4 0 8 3.6 8 8s-3.6 8-8 8-8-3.6-8-8 3.6-8 8-8zm0-2C4.5 0 0 4.5 0 10s4.5 10 10 10 10-4.5 10-10S15.5 0 10 0z"/></g><g><g><path fill="" d="M11.594 3.099l-.188 1.007c-.3 0-.606-.094-.906-.094V2.91c.4.1.794.088 1.094.189zM8.688 4.104l-.876.315-.406-.913c.3-.1.694-.207 1.094-.409zm6.218.898l-3.062 4.184c.003.008-.004.023 0 .031A2.003 2.003 0 0 1 10 11.996a2 2 0 1 1 0-3.997c.075 0 .146.024.219.031l3.062-4.215zm-8.719.406c-.2.2-.487.393-.687.593l-.688-.687c.2-.2.482-.518.782-.718zm10.23 1.786l-.914.41c-.1-.303-.208-.485-.41-.787l.82-.504c.201.302.403.58.503.881zM4.5 7.503l-.313.912-1-.314c.1-.302.307-.705.407-1.007zM17 10.32h-1v-.915l1-.094zm-13-.135c0 .302.094.611.094.913l-1 .22c0-.402-.094-.73-.094-1.133zm12.584 2.219c-.199.403-.298.705-.497 1.007l-.9-.504c.2-.2.298-.516.497-.818zM5.188 13.687l-.782.63c-.2-.303-.4-.61-.5-.913l.781-.503c.1.302.3.585.5.786z"/></g></g></g></g></svg>